<svg width="135" height="60" viewBox="0 0 135 60" fill="none" xmlns="http://www.w3.org/2000/svg">
<rect x="0.611763" y="0.941177" width="133.482" height="58.1177" rx="29.0588" fill="white"/>
<path d="M34.2799 34.88V31.568L41.8639 20.72H46.4479V31.328H48.4159V34.88H46.4479V38H42.3439V34.88H34.2799ZM42.6319 25.232L38.5999 31.328H42.6319V25.232ZM53.7141 38.192C52.9941 38.192 52.4021 37.984 51.9381 37.568C51.4901 37.136 51.2661 36.608 51.2661 35.984C51.2661 35.344 51.4901 34.808 51.9381 34.376C52.4021 33.944 52.9941 33.728 53.7141 33.728C54.4181 33.728 54.9941 33.944 55.4421 34.376C55.9061 34.808 56.1381 35.344 56.1381 35.984C56.1381 36.608 55.9061 37.136 55.4421 37.568C54.9941 37.984 54.4181 38.192 53.7141 38.192ZM61.9995 28.592C60.4955 27.792 59.7435 26.536 59.7435 24.824C59.7435 23.96 59.9675 23.176 60.4155 22.472C60.8635 21.752 61.5435 21.184 62.4555 20.768C63.3675 20.336 64.4875 20.12 65.8155 20.12C67.1435 20.12 68.2555 20.336 69.1515 20.768C70.0635 21.184 70.7435 21.752 71.1915 22.472C71.6395 23.176 71.8635 23.96 71.8635 24.824C71.8635 25.688 71.6555 26.44 71.2395 27.08C70.8395 27.72 70.2955 28.224 69.6075 28.592C70.4715 29.008 71.1355 29.584 71.5995 30.32C72.0635 31.04 72.2955 31.888 72.2955 32.864C72.2955 34 72.0075 34.984 71.4315 35.816C70.8555 36.632 70.0715 37.256 69.0795 37.688C68.1035 38.12 67.0155 38.336 65.8155 38.336C64.6155 38.336 63.5195 38.12 62.5275 37.688C61.5515 37.256 60.7755 36.632 60.1995 35.816C59.6235 34.984 59.3355 34 59.3355 32.864C59.3355 31.872 59.5675 31.016 60.0315 30.296C60.4955 29.56 61.1515 28.992 61.9995 28.592ZM67.8795 25.448C67.8795 24.792 67.6875 24.288 67.3035 23.936C66.9355 23.568 66.4395 23.384 65.8155 23.384C65.1915 23.384 64.6875 23.568 64.3035 23.936C63.9355 24.304 63.7515 24.816 63.7515 25.472C63.7515 26.096 63.9435 26.592 64.3275 26.96C64.7115 27.312 65.2075 27.488 65.8155 27.488C66.4235 27.488 66.9195 27.304 67.3035 26.936C67.6875 26.568 67.8795 26.072 67.8795 25.448ZM65.8155 30.368C65.0635 30.368 64.4555 30.576 63.9915 30.992C63.5275 31.392 63.2955 31.952 63.2955 32.672C63.2955 33.344 63.5195 33.896 63.9675 34.328C64.4315 34.76 65.0475 34.976 65.8155 34.976C66.5835 34.976 67.1835 34.76 67.6155 34.328C68.0635 33.896 68.2875 33.344 68.2875 32.672C68.2875 31.968 68.0555 31.408 67.5915 30.992C67.1435 30.576 66.5515 30.368 65.8155 30.368Z" fill="#2F2105"/>
<path d="M91.4269 20.633C91.7469 19.789 92.9579 19.789 93.2789 20.633L95.3489 26.367C95.4212 26.5538 95.5483 26.7143 95.7136 26.8273C95.879 26.9403 96.0747 27.0005 96.2749 27H101.362C102.302 27 102.712 28.17 101.973 28.743L98.3529 32C98.1908 32.1247 98.0723 32.2975 98.0144 32.4937C97.9566 32.6898 97.9624 32.8993 98.0309 33.092L99.3529 38.695C99.6749 39.595 98.6329 40.368 97.8449 39.814L92.9279 36.694C92.7596 36.5757 92.5588 36.5122 92.3529 36.5122C92.1471 36.5122 91.9463 36.5757 91.7779 36.694L86.8609 39.814C86.0739 40.368 85.0309 39.594 85.3529 38.695L86.6749 33.092C86.7435 32.8993 86.7493 32.6898 86.6915 32.4937C86.6336 32.2975 86.5151 32.1247 86.3529 32L82.7329 28.743C81.9929 28.17 82.4049 27 83.3429 27H88.4299C88.6302 27.0007 88.826 26.9405 88.9914 26.8275C89.1567 26.7144 89.2838 26.5539 89.3559 26.367L91.4259 20.633H91.4269Z" fill="#FFD057" stroke="#FFD057" stroke-linecap="round" stroke-linejoin="round"/>
</svg>
